<svg xmlns="http://www.w3.org/2000/svg" width="35" height="33" viewBox="0 0 35 33">
  <g id="Group_84" data-name="Group 84" transform="translate(-251 -767)">
    <g id="On-Demand_Icon" data-name="On-Demand Icon" transform="translate(251 767)" fill="#fff" stroke-linejoin="round">
      <path d="M 27.99989891052246 32.50030136108398 L 7.000199794769287 32.50030136108398 C 3.415979623794556 32.50030136108398 0.4999995827674866 29.58432006835938 0.4999995827674866 26.00010108947754 L 0.4999995827674866 21.3907642364502 C 1.442611932754517 21.1679859161377 2.305109739303589 20.6187744140625 2.819765329360962 19.89604949951172 C 3.625032186508179 18.8029727935791 4.000099658966064 17.72394561767578 4.000099658966064 16.50060081481934 C 4.000099658966064 14.11945152282715 2.523731470108032 12.09869956970215 0.4999995827674866 11.61119270324707 L 0.4999995827674866 7.000200748443604 C 0.4999995827674866 3.415980577468872 3.415979623794556 0.5000006556510925 7.000199794769287 0.5000006556510925 L 27.99989891052246 0.5000006556510925 C 31.58411979675293 0.5000006556510925 34.50009918212891 3.415980577468872 34.50009918212891 7.000200748443604 L 34.50009918212891 11.50019073486328 C 32.08199691772461 11.53807735443115 30.12520027160645 13.76665306091309 30.12520027160645 16.50060081481934 C 30.12520027160645 19.23405265808105 32.08199691772461 21.46223068237305 34.50009918212891 21.5001106262207 L 34.50009918212891 26.00010108947754 C 34.50009918212891 29.58432006835938 31.58411979675293 32.50030136108398 27.99989891052246 32.50030136108398 Z" stroke="none"/>
      <path d="M 27.99989891052246 32.00030136108398 C 31.30842018127441 32.00030136108398 34.00009918212891 29.30862045288086 34.00009918212891 26.00010108947754 L 34.00009918212891 21.96512222290039 C 31.54156112670898 21.65300750732422 29.62520027160645 19.32136917114258 29.62520027160645 16.50060081481934 C 29.62520027160645 13.67936706542969 31.54156112670898 11.34735012054443 34.00009918212891 11.03518486022949 L 34.00009918212891 7.000200748443604 C 34.00009918212891 3.691680669784546 31.30842018127441 1.000000715255737 27.99989891052246 1.000000715255737 L 7.000199794769287 1.000000715255737 C 3.69167947769165 1.000000715255737 0.9999995827674866 3.691680669784546 0.9999995827674866 7.000200748443604 L 0.9999995827674866 11.23551273345947 C 3.046261548995972 11.9243278503418 4.500099658966064 14.03807926177979 4.500099658966064 16.50060081481934 C 4.500099658966064 17.81658554077148 4.08291482925415 19.02327156066895 3.22460412979126 20.18951797485352 C 2.70429515838623 20.91849517822266 1.907501339912415 21.47745323181152 0.9999995827674866 21.7712287902832 L 0.9999995827674866 26.00010108947754 C 0.9999995827674866 29.30862045288086 3.69167947769165 32.00030136108398 7.000199794769287 32.00030136108398 L 27.99989891052246 32.00030136108398 M 27.99989891052246 33.00030136108398 L 7.000199794769287 33.00030136108398 C 3.140279531478882 33.00030136108398 -4.089355343239731e-07 29.86002159118652 -4.089355343239731e-07 26.00010108947754 L -4.089355343239731e-07 20.97348976135254 C 0.9750695824623108 20.85272979736328 1.899999618530273 20.32793045043945 2.414699554443359 19.60290145874023 C 3.155209541320801 18.5988712310791 3.500099658966064 17.61310005187988 3.500099658966064 16.50060081481934 C 3.500099658966064 14.20239067077637 1.995389580726624 12.27925109863281 -4.089355343239731e-07 12.0272102355957 L -4.089355343239731e-07 7.000200748443604 C -4.089355343239731e-07 3.140280723571777 3.140279531478882 6.805419729971618e-07 7.000199794769287 6.805419729971618e-07 L 27.99989891052246 6.805419729971618e-07 C 31.85981941223145 6.805419729971618e-07 35.00009918212891 3.140280723571777 35.00009918212891 7.000200748443604 L 35.00009918212891 12.02723026275635 C 34.85799026489258 12.00930023193359 34.71120834350586 11.99970054626465 34.56269836425781 11.99970054626465 C 32.39155960083008 11.99970054626465 30.62520027160645 14.01880073547363 30.62520027160645 16.50060081481934 C 30.62520027160645 18.98191070556641 32.39155960083008 21.00060081481934 34.56269836425781 21.00060081481934 C 34.70824813842773 21.00060081481934 34.85540771484375 20.99133110046387 35.00009918212891 20.97306060791016 L 35.00009918212891 26.00010108947754 C 35.00009918212891 29.86002159118652 31.85981941223145 33.00030136108398 27.99989891052246 33.00030136108398 Z" stroke="none" fill="#3d80f2"/>
    </g>
    <path id="Polygon_1" data-name="Polygon 1" d="M7.753,2.03a2,2,0,0,1,3.158,0l5.243,6.742A2,2,0,0,1,14.575,12H4.089A2,2,0,0,1,2.51,8.772Z" transform="translate(276.5 774.168) rotate(90)" fill="none" stroke="#3d80f2" stroke-width="1"/>
  </g>
</svg>
