<svg xmlns="http://www.w3.org/2000/svg" width="23.341" height="27.585" viewBox="0 0 23.341 27.585">
  <path id="Icon_ionic-md-notifications-outline" data-name="Icon ionic-md-notifications-outline" d="M17.362,8.18a9.586,9.586,0,0,1,1.586.3A6.758,6.758,0,0,1,24.1,15.1V23.56l.618.621.516.519H9.358l.516-.519.618-.621V15.1a6.758,6.758,0,0,1,5.151-6.621,11.739,11.739,0,0,1,1.586-.3M17.3,3.375a2.027,2.027,0,0,0-2.059,2.069v.965A8.939,8.939,0,0,0,8.371,15.1v7.586L5.625,25.443v1.379H28.966V25.443L26.22,22.684V15.1a8.94,8.94,0,0,0-6.865-8.689V5.444A2.027,2.027,0,0,0,17.3,3.375ZM20.041,28.2H14.549a2.746,2.746,0,1,0,5.492,0Z" transform="translate(-5.625 -3.375)" fill="#c3bcbc"/>
</svg>
