<svg xmlns="http://www.w3.org/2000/svg" width="30.771" height="34" viewBox="0 0 30.771 34">
  <g id="Group_88" data-name="Group 88" transform="translate(-325.8 -765)">
    <path id="Path_6" data-name="Path 6" d="M9.45,3,4.5,9.6V32.7A3.3,3.3,0,0,0,7.8,36H30.9a3.3,3.3,0,0,0,3.3-3.3V9.6L29.25,3Z" transform="translate(321.8 762.5)" fill="none" stroke="#707070" stroke-linecap="round" stroke-linejoin="round" stroke-width="1"/>
    <path id="Path_7" data-name="Path 7" d="M4.5,9H34.2" transform="translate(321.8 763.1)" fill="none" stroke="#707070" stroke-linecap="round" stroke-linejoin="round" stroke-width="1"/>
    <path id="Path_8" data-name="Path 8" d="M23.867,15A5.933,5.933,0,0,1,12,15" transform="translate(323.217 761.067)" fill="none" stroke="#707070" stroke-linecap="round" stroke-linejoin="round" stroke-width="1"/>
    <path id="Path_29" data-name="Path 29" d="M326.3,31.4h29.68s.183,6.219,0,8.423-2.99,3.494-2.99,3.494-21.145.23-23.521,0-3.17-3.494-3.17-3.494Z" transform="translate(0 755)" fill="#707070" stroke="#707070" stroke-width="1"/>
  </g>
</svg>
