<svg width="20" height="20" viewBox="0 0 20 20" fill="none" xmlns="http://www.w3.org/2000/svg">
<path d="M0 2C0 0.895431 0.895431 0 2 0H18C19.1046 0 20 0.895431 20 2V18C20 19.1046 19.1046 20 18 20H2C0.895431 20 0 19.1046 0 18V2Z" fill="#373A4D"/>
<path fill-rule="evenodd" clip-rule="evenodd" d="M4.38746 11.6063C3.87085 11.1235 3.87085 10.3409 4.38746 9.85818C4.90408 9.37547 5.74169 9.37547 6.25831 9.85818L7.94207 11.4314C8.04539 11.528 8.21292 11.528 8.31624 11.4314L13.7417 6.36204C14.2583 5.87932 15.0959 5.87932 15.6125 6.36204C16.1292 6.84475 16.1292 7.62739 15.6125 8.11011L8.31624 14.9276C8.21292 15.0241 8.04539 15.0241 7.94207 14.9276L4.38746 11.6063Z" fill="white"/>
</svg>
