<svg xmlns="http://www.w3.org/2000/svg" width="24.052" height="34.18" viewBox="0 0 24.052 34.18">
  <g id="Group_85" data-name="Group 85" transform="translate(-108 -766.432)">
    <g id="Path_4" data-name="Path 4" transform="translate(108 777.059)" fill="none" stroke-linejoin="round">
      <path d="M12.026,0c6.642,0,12.026,4.719,12.026,10.54S18.4,23.554,11.759,23.554,0,16.362,0,10.54,5.384,0,12.026,0Z" stroke="none"/>
      <path d="M 12.0261812210083 1.000003814697266 C 5.946321487426758 1.000003814697266 1.000001907348633 5.279773712158203 1.000001907348633 10.54032325744629 C 1.000001907348633 13.21379280090332 2.179981231689453 16.22258377075195 4.156461715698242 18.58885192871094 C 6.291971206665039 21.14553260803223 8.992061614990234 22.55356216430664 11.7593412399292 22.55356216430664 C 13.18832111358643 22.55356216430664 14.62144088745117 22.18316268920898 16.01889038085938 21.4526424407959 C 17.32088088989258 20.77203369140625 18.57610130310059 19.7738037109375 19.64885139465332 18.56588363647461 C 21.78002166748047 16.16617202758789 23.05236053466797 13.1659631729126 23.05236053466797 10.54032325744629 C 23.05236053466797 5.279773712158203 18.10604095458984 1.000003814697266 12.0261812210083 1.000003814697266 M 12.0261812210083 3.814697265625e-06 C 18.66805076599121 3.814697265625e-06 24.05236053466797 4.719062805175781 24.05236053466797 10.54032325744629 C 24.05236053466797 16.3615837097168 18.40121078491211 23.55356216430664 11.7593412399292 23.55356216430664 C 5.117462158203125 23.55356216430664 1.9073486328125e-06 16.3615837097168 1.9073486328125e-06 10.54032325744629 C 1.9073486328125e-06 4.719062805175781 5.384302139282227 3.814697265625e-06 12.0261812210083 3.814697265625e-06 Z" stroke="none" fill="#3d80f2"/>
    </g>
    <g id="Ellipse_5" data-name="Ellipse 5" transform="translate(114.526 766.432)" fill="none" stroke="#3d80f2" stroke-linejoin="round" stroke-width="1">
      <circle cx="5.5" cy="5.5" r="5.5" stroke="none"/>
      <circle cx="5.5" cy="5.5" r="5" fill="none"/>
    </g>
  </g>
</svg>
