<svg xmlns="http://www.w3.org/2000/svg" xmlns:xlink="http://www.w3.org/1999/xlink" width="375.999" height="126.999" viewBox="0 0 375.999 126.999">
  <defs>
    <filter id="Subtraction_2" x="0" y="0" width="375.999" height="126.999" filterUnits="userSpaceOnUse">
      <feOffset dy="3" input="SourceAlpha"/>
      <feGaussianBlur stdDeviation="3" result="blur"/>
      <feFlood flood-opacity="0.161"/>
      <feComposite operator="in" in2="blur"/>
      <feComposite in="SourceGraphic"/>
    </filter>
  </defs>
  <g transform="matrix(1, 0, 0, 1, 0, 0)" filter="url(#Subtraction_2)">
    <g id="Subtraction_2-2" data-name="Subtraction 2" transform="translate(83 9304)" fill="#f0f0f0">
      <path d="M 274.0008544921875 -9189.5009765625 L -64.0006103515625 -9189.5009765625 C -69.23838806152344 -9189.5009765625 -73.49961090087891 -9193.7626953125 -73.49961090087891 -9199 L -73.49961090087891 -9229.8369140625 C -70.03032684326172 -9230.1748046875 -66.821044921875 -9231.6806640625 -64.41961669921875 -9234.107421875 C -61.89188766479492 -9236.66015625 -60.49974822998047 -9239.99609375 -60.49974822998047 -9243.4990234375 C -60.49974822998047 -9247.00390625 -61.89188766479492 -9250.33984375 -64.41965484619141 -9252.892578125 C -66.82118225097656 -9255.318359375 -70.03044891357422 -9256.82421875 -73.49961090087891 -9257.162109375 L -73.49961090087891 -9287.9990234375 C -73.49961090087891 -9293.23828125 -69.23838806152344 -9297.5 -64.0006103515625 -9297.5 L 274.0008544921875 -9297.5 C 279.2385559082031 -9297.5 283.4997863769531 -9293.23828125 283.4997863769531 -9287.9990234375 L 283.4997863769531 -9257.162109375 C 280.0299987792969 -9256.82421875 276.8206787109375 -9255.318359375 274.4197998046875 -9252.892578125 C 271.8920593261719 -9250.33984375 270.4999389648438 -9247.00390625 270.4999389648438 -9243.4990234375 C 270.4999389648438 -9239.99609375 271.8920593261719 -9236.66015625 274.4198303222656 -9234.107421875 C 276.8208312988281 -9231.6806640625 280.0301513671875 -9230.1748046875 283.4997863769531 -9229.8369140625 L 283.4997863769531 -9199 C 283.4997863769531 -9193.7626953125 279.2385559082031 -9189.5009765625 274.0008544921875 -9189.5009765625 Z" stroke="none"/>
      <path d="M 274.0008544921875 -9190.0009765625 C 278.962890625 -9190.0009765625 282.9997863769531 -9194.0380859375 282.9997863769531 -9199 L 282.9997863769531 -9229.390625 C 279.587646484375 -9229.8212890625 276.4431762695312 -9231.3515625 274.0645141601562 -9233.755859375 C 271.4434204101562 -9236.4033203125 269.9999389648438 -9239.86328125 269.9999389648438 -9243.4990234375 C 269.9999389648438 -9247.1357421875 271.4434204101562 -9250.5966796875 274.0644226074219 -9253.244140625 C 276.4429931640625 -9255.6474609375 279.5874938964844 -9257.177734375 282.9997863769531 -9257.609375 L 282.9997863769531 -9287.9990234375 C 282.9997863769531 -9292.9619140625 278.962890625 -9297 274.0008544921875 -9297 L -64.0006103515625 -9297 C -68.96266174316406 -9297 -72.99961090087891 -9292.9619140625 -72.99961090087891 -9287.9990234375 L -72.99961090087891 -9257.6083984375 C -69.58790588378906 -9257.177734375 -66.44356536865234 -9255.6474609375 -64.06433868408203 -9253.244140625 C -61.4432487487793 -9250.5966796875 -59.99974822998047 -9247.1357421875 -59.99974822998047 -9243.4990234375 C -59.99974822998047 -9239.86328125 -61.4432487487793 -9236.4033203125 -64.06424713134766 -9233.755859375 C -66.44335174560547 -9231.3515625 -69.58778381347656 -9229.8212890625 -72.99961090087891 -9229.390625 L -72.99961090087891 -9199 C -72.99961090087891 -9194.0380859375 -68.96266174316406 -9190.0009765625 -64.0006103515625 -9190.0009765625 L 274.0008544921875 -9190.0009765625 M 274.0008544921875 -9189.0009765625 L -64.0006103515625 -9189.0009765625 C -69.51406860351562 -9189.0009765625 -73.99961090087891 -9193.486328125 -73.99961090087891 -9199 L -73.99961090087891 -9230.2978515625 C -70.47383880615234 -9230.533203125 -67.19811248779297 -9232.0107421875 -64.77497863769531 -9234.458984375 C -62.34047698974609 -9236.91796875 -60.99974822998047 -9240.12890625 -60.99974822998047 -9243.4990234375 C -60.99974822998047 -9246.8701171875 -62.34047698974609 -9250.08203125 -64.77497863769531 -9252.541015625 C -67.19788360595703 -9254.98828125 -70.47393035888672 -9256.4658203125 -73.99961090087891 -9256.701171875 L -73.99961090087891 -9287.9990234375 C -73.99961090087891 -9293.513671875 -69.51406860351562 -9298 -64.0006103515625 -9298 L 274.0008544921875 -9298 C 279.5142822265625 -9298 283.9997863769531 -9293.513671875 283.9997863769531 -9287.9990234375 L 283.9997863769531 -9256.701171875 C 280.47412109375 -9256.4658203125 277.1983947753906 -9254.9892578125 274.775146484375 -9252.541015625 C 272.3406677246094 -9250.08203125 270.9999389648438 -9246.8701171875 270.9999389648438 -9243.4990234375 C 270.9999389648438 -9240.12890625 272.3406677246094 -9236.91796875 274.775146484375 -9234.458984375 C 277.1979370117188 -9232.0107421875 280.4739685058594 -9230.533203125 283.9997863769531 -9230.2978515625 L 283.9997863769531 -9199 C 283.9997863769531 -9193.486328125 279.5142822265625 -9189.0009765625 274.0008544921875 -9189.0009765625 Z" stroke="none" fill="#f0f0f0"/>
    </g>
  </g>
</svg>
