<svg id="Search_Icon" data-name="Search Icon" xmlns="http://www.w3.org/2000/svg" width="174" height="33" viewBox="0 0 174 33">
  <g id="Search_Icon-2" data-name="Search Icon" fill="none">
    <path d="M16.5,0h141a16.5,16.5,0,0,1,0,33H16.5a16.5,16.5,0,0,1,0-33Z" stroke="none"/>
    <path d="M 16.5 2 C 12.62690734863281 2 8.985641479492188 3.508262634277344 6.2469482421875 6.246952056884766 C 3.508255004882812 8.98564338684082 2 12.62690544128418 2 16.5 C 2 20.37309646606445 3.508255004882812 24.01435852050781 6.2469482421875 26.75304794311523 C 8.985641479492188 29.49173736572266 12.62690734863281 31 16.5 31 L 157.5 31 C 161.3730926513672 31 165.0143585205078 29.49173736572266 167.7530517578125 26.75304794311523 C 170.4917449951172 24.01435852050781 172 20.37309646606445 172 16.5 C 172 12.62690544128418 170.4917449951172 8.98564338684082 167.7530517578125 6.246952056884766 C 165.0143585205078 3.508262634277344 161.3730926513672 2 157.5 2 L 16.5 2 M 16.5 0 L 157.5 0 C 166.6126861572266 0 174 7.387310028076172 174 16.5 C 174 25.61268997192383 166.6126861572266 33 157.5 33 L 16.5 33 C 7.387283325195312 33 0 25.61268997192383 0 16.5 C 0 7.387310028076172 7.387283325195312 0 16.5 0 Z" stroke="none" fill="#3d80f2"/>
  </g>
  <g id="Search_Icon-3" data-name="Search Icon" transform="translate(22.273 7.965)">
    <path id="Path_17" data-name="Path 17" d="M19.674,12.087A7.587,7.587,0,1,1,12.087,4.5a7.587,7.587,0,0,1,7.587,7.587Z" transform="translate(-4.5 -4.5)" fill="none" stroke="#3d80f2" stroke-linecap="round" stroke-linejoin="round" stroke-width="2"/>
    <path id="Path_18" data-name="Path 18" d="M29.1,29.1l-4.125-4.125" transform="translate(-12.03 -12.03)" fill="none" stroke="#3d80f2" stroke-linecap="round" stroke-linejoin="round" stroke-width="2"/>
  </g>
  <text id="Search" transform="translate(77 22)" fill="#3d80f2" font-size="16" font-family="FuturaPT-BookObl"><tspan x="-23.508" y="0">Search</tspan></text>
</svg>
